<mxfile host="app.diagrams.net" modified="2024-02-24T12:03:31.228Z" agent="Mozilla/5.0 (X11; Linux x86_64) AppleWebKit/537.36 (KHTML, like Gecko) Chrome/116.0.0.0 Safari/537.36" etag="S3bwmTosUW6qb_2wIEsG" version="23.1.4" type="device">
  <diagram name="Страница — 1" id="WH9vljAc0ZoLaOf30Sa2">
    <mxGraphModel dx="1434" dy="762" grid="1" gridSize="10" guides="1" tooltips="1" connect="1" arrows="1" fold="1" page="1" pageScale="1" pageWidth="1654" pageHeight="2336" math="0" shadow="0">
      <root>
        <mxCell id="0" />
        <mxCell id="1" parent="0" />
        <mxCell id="8qjVLhmRnXaIFq8FL24Y-1" value="Business Logic" style="shape=module;align=left;spacingLeft=20;align=center;verticalAlign=top;whiteSpace=wrap;html=1;" vertex="1" parent="1">
          <mxGeometry x="660" y="330" width="100" height="50" as="geometry" />
        </mxCell>
        <mxCell id="8qjVLhmRnXaIFq8FL24Y-6" style="edgeStyle=orthogonalEdgeStyle;rounded=0;orthogonalLoop=1;jettySize=auto;html=1;entryX=1;entryY=0.5;entryDx=0;entryDy=0;" edge="1" parent="1" source="8qjVLhmRnXaIFq8FL24Y-2" target="8qjVLhmRnXaIFq8FL24Y-1">
          <mxGeometry relative="1" as="geometry" />
        </mxCell>
        <mxCell id="8qjVLhmRnXaIFq8FL24Y-2" value="UI" style="shape=module;align=left;spacingLeft=20;align=center;verticalAlign=top;whiteSpace=wrap;html=1;" vertex="1" parent="1">
          <mxGeometry x="827" y="330" width="100" height="50" as="geometry" />
        </mxCell>
        <mxCell id="8qjVLhmRnXaIFq8FL24Y-5" style="edgeStyle=orthogonalEdgeStyle;rounded=0;orthogonalLoop=1;jettySize=auto;html=1;" edge="1" parent="1" source="8qjVLhmRnXaIFq8FL24Y-3" target="8qjVLhmRnXaIFq8FL24Y-1">
          <mxGeometry relative="1" as="geometry" />
        </mxCell>
        <mxCell id="8qjVLhmRnXaIFq8FL24Y-3" value="Data Access&lt;br&gt;" style="shape=module;align=left;spacingLeft=20;align=center;verticalAlign=top;whiteSpace=wrap;html=1;" vertex="1" parent="1">
          <mxGeometry x="490" y="330" width="100" height="50" as="geometry" />
        </mxCell>
        <mxCell id="8qjVLhmRnXaIFq8FL24Y-7" value="" style="shape=cylinder3;whiteSpace=wrap;html=1;boundedLbl=1;backgroundOutline=1;size=15;" vertex="1" parent="1">
          <mxGeometry x="340" y="315" width="60" height="80" as="geometry" />
        </mxCell>
        <mxCell id="8qjVLhmRnXaIFq8FL24Y-8" style="edgeStyle=orthogonalEdgeStyle;rounded=0;orthogonalLoop=1;jettySize=auto;html=1;entryX=1;entryY=0.5;entryDx=0;entryDy=0;entryPerimeter=0;" edge="1" parent="1" source="8qjVLhmRnXaIFq8FL24Y-3" target="8qjVLhmRnXaIFq8FL24Y-7">
          <mxGeometry relative="1" as="geometry" />
        </mxCell>
        <mxCell id="8qjVLhmRnXaIFq8FL24Y-9" value="DataBase" style="text;html=1;align=center;verticalAlign=middle;whiteSpace=wrap;rounded=0;" vertex="1" parent="1">
          <mxGeometry x="340" y="395" width="60" height="30" as="geometry" />
        </mxCell>
      </root>
    </mxGraphModel>
  </diagram>
</mxfile>
